<?xml version="1.0" encoding="UTF-8" standalone="no"?>
<svg
   version="1.2"
   width="201.77585mm"
   height="197.18732mm"
   viewBox="0 0 20177.586 19718.731"
   preserveAspectRatio="xMidYMid"
   fill-rule="evenodd"
   stroke-width="28.222"
   stroke-linejoin="round"
   xml:space="preserve"
   id="svg1186"
   sodipodi:docname="Dragon5.svg"
   inkscape:version="1.2.2 (732a01da63, 2022-12-09, custom)"
   xmlns:inkscape="http://www.inkscape.org/namespaces/inkscape"
   xmlns:sodipodi="http://sodipodi.sourceforge.net/DTD/sodipodi-0.dtd"
   xmlns="http://www.w3.org/2000/svg"
   xmlns:svg="http://www.w3.org/2000/svg"
   xmlns:ooo="http://xml.openoffice.org/svg/export"><sodipodi:namedview
   id="namedview1188"
   pagecolor="#ffffff"
   bordercolor="#000000"
   borderopacity="0.25"
   inkscape:showpageshadow="2"
   inkscape:pageopacity="0.0"
   inkscape:pagecheckerboard="0"
   inkscape:deskcolor="#d1d1d1"
   inkscape:document-units="mm"
   showgrid="false"
   inkscape:zoom="1.1108716"
   inkscape:cx="377.18131"
   inkscape:cy="373.13043"
   inkscape:window-width="1850"
   inkscape:window-height="1016"
   inkscape:window-x="0"
   inkscape:window-y="0"
   inkscape:window-maximized="1"
   inkscape:current-layer="layer5" />
 <defs
   class="ClipPathGroup"
   id="defs1121">
  <clipPath
   id="presentation_clip_path"
   clipPathUnits="userSpaceOnUse">
   <rect
   x="0"
   y="0"
   width="20179"
   height="19721"
   id="rect1115" />
  </clipPath>
  <clipPath
   id="presentation_clip_path_shrink"
   clipPathUnits="userSpaceOnUse">
   <rect
   x="20"
   y="19"
   width="20139"
   height="19682"
   id="rect1118" />
  </clipPath>
 </defs>
 <defs
   class="TextShapeIndex"
   id="defs1125">
  <g
   ooo:slide="id1"
   ooo:id-list="id3 id4"
   id="g1123" />
 </defs>
 <defs
   class="EmbeddedBulletChars"
   id="defs1157">
  <g
   id="bullet-char-template-57356"
   transform="matrix(4.8828125e-4,0,0,-4.8828125e-4,0,0)">
   <path
   d="M 580,1141 1163,571 580,0 -4,571 Z"
   id="path1127" />
  </g>
  <g
   id="bullet-char-template-57354"
   transform="matrix(4.8828125e-4,0,0,-4.8828125e-4,0,0)">
   <path
   d="M 8,1128 H 1137 V 0 H 8 Z"
   id="path1130" />
  </g>
  <g
   id="bullet-char-template-10146"
   transform="matrix(4.8828125e-4,0,0,-4.8828125e-4,0,0)">
   <path
   d="M 174,0 602,739 174,1481 1456,739 Z M 1358,739 309,1346 659,739 Z"
   id="path1133" />
  </g>
  <g
   id="bullet-char-template-10132"
   transform="matrix(4.8828125e-4,0,0,-4.8828125e-4,0,0)">
   <path
   d="M 2015,739 1276,0 H 717 l 543,543 H 174 v 393 h 1086 l -543,545 h 557 z"
   id="path1136" />
  </g>
  <g
   id="bullet-char-template-10007"
   transform="matrix(4.8828125e-4,0,0,-4.8828125e-4,0,0)">
   <path
   d="m 0,-2 c -7,16 -16,29 -25,39 l 381,530 c -94,256 -141,385 -141,387 0,25 13,38 40,38 9,0 21,-2 34,-5 21,4 42,12 65,25 l 27,-13 111,-251 280,301 64,-25 24,25 c 21,-10 41,-24 62,-43 C 886,937 835,863 770,784 769,783 710,716 594,584 L 774,223 c 0,-27 -21,-55 -63,-84 l 16,-20 C 717,90 699,76 672,76 641,76 570,178 457,381 L 164,-76 c -22,-34 -53,-51 -92,-51 -42,0 -63,17 -64,51 -7,9 -10,24 -10,44 0,9 1,19 2,30 z"
   id="path1139" />
  </g>
  <g
   id="bullet-char-template-10004"
   transform="matrix(4.8828125e-4,0,0,-4.8828125e-4,0,0)">
   <path
   d="M 285,-33 C 182,-33 111,30 74,156 52,228 41,333 41,471 c 0,78 14,145 41,201 34,71 87,106 158,106 53,0 88,-31 106,-94 l 23,-176 c 8,-64 28,-97 59,-98 l 735,706 c 11,11 33,17 66,17 42,0 63,-15 63,-46 V 965 c 0,-36 -10,-64 -30,-84 L 442,47 C 390,-6 338,-33 285,-33 Z"
   id="path1142" />
  </g>
  <g
   id="bullet-char-template-9679"
   transform="matrix(4.8828125e-4,0,0,-4.8828125e-4,0,0)">
   <path
   d="M 813,0 C 632,0 489,54 383,161 276,268 223,411 223,592 c 0,181 53,324 160,431 106,107 249,161 430,161 179,0 323,-54 432,-161 108,-107 162,-251 162,-431 0,-180 -54,-324 -162,-431 C 1136,54 992,0 813,0 Z"
   id="path1145" />
  </g>
  <g
   id="bullet-char-template-8226"
   transform="matrix(4.8828125e-4,0,0,-4.8828125e-4,0,0)">
   <path
   d="m 346,457 c -73,0 -137,26 -191,78 -54,51 -81,114 -81,188 0,73 27,136 81,188 54,52 118,78 191,78 73,0 134,-26 185,-79 51,-51 77,-114 77,-187 0,-75 -25,-137 -76,-188 -50,-52 -112,-78 -186,-78 z"
   id="path1148" />
  </g>
  <g
   id="bullet-char-template-8211"
   transform="matrix(4.8828125e-4,0,0,-4.8828125e-4,0,0)">
   <path
   d="M -4,459 H 1135 V 606 H -4 Z"
   id="path1151" />
  </g>
  <g
   id="bullet-char-template-61548"
   transform="matrix(4.8828125e-4,0,0,-4.8828125e-4,0,0)">
   <path
   d="m 173,740 c 0,163 58,303 173,419 116,115 255,173 419,173 163,0 302,-58 418,-173 116,-116 174,-256 174,-419 0,-163 -58,-303 -174,-418 C 1067,206 928,148 765,148 601,148 462,206 346,322 231,437 173,577 173,740 Z"
   id="path1154" />
  </g>
 </defs>
 
 
<g
   inkscape:groupmode="layer"
   id="layer5"
   inkscape:label="Layer 1"
   transform="translate(-0.17033406)"><path
     fill="#000000"
     stroke="none"
     d="m 9768,19710 c -37,-72 -113,-437 -113,-538 0,-37 -12,-118 -26,-180 -14,-62 -44,-262 -67,-443 -23,-182 -52,-391 -66,-463 -14,-73 -44,-270 -67,-437 -23,-167 -53,-358 -66,-423 -78,-371 -134,-616 -177,-781 -31,-113 -43,-216 -32,-264 10,-44 19,-112 21,-152 3,-64 -7,-73 -74,-73 -55,0 -83,-16 -95,-54 -31,-97 -246,-459 -392,-661 -80,-109 -141,-202 -136,-208 16,-16 281,182 418,312 127,121 229,280 229,358 0,68 45,46 80,-38 18,-44 40,-79 49,-79 9,0 81,41 159,91 150,96 164,96 348,1 43,-23 79,-33 79,-23 0,10 -63,101 -139,201 l -139,183 -100,-108 c -55,-59 -106,-108 -113,-108 -6,0 -12,40 -12,88 0,68 26,112 119,203 66,65 119,106 119,92 1,-31 207,-250 236,-250 11,0 52,64 91,144 82,168 88,306 28,663 -55,325 -88,935 -111,2061 -15,772 -25,938 -51,886 z M 3643,16022 c 218,-480 458,-1024 534,-1207 99,-238 172,-370 253,-462 134,-150 159,-142 199,68 14,78 32,147 39,154 7,7 111,1 231,-14 121,-14 223,-23 228,-19 16,13 -78,311 -129,408 -27,51 -151,206 -277,344 -331,365 -790,943 -1051,1323 -125,182 -255,371 -289,420 -90,130 -340,404 -340,374 0,-45 188,-478 602,-1389 z m 12086,931 c -312,-397 -850,-946 -1365,-1394 -124,-107 -240,-209 -258,-225 -33,-28 -150,-408 -132,-426 5,-5 102,10 214,33 113,23 211,36 218,29 7,-7 26,-85 43,-174 l 30,-161 127,69 c 71,38 128,78 128,89 0,42 333,713 496,1000 93,166 291,493 438,728 291,465 539,916 502,916 -12,0 -71,-50 -130,-112 -59,-62 -199,-229 -311,-372 z M 3845,3224 c -21,78 -47,76 -85,-8 -46,-101 -38,-235 18,-285 26,-24 56,-44 66,-44 22,0 23,256 1,337 z M 10555,722 c 119,-138 181,-165 232,-103 21,25 -48,109 -275,336 -166,166 -302,289 -302,272 0,-43 205,-342 345,-505 z M 8632,428 c -128,64 -248,157 -408,316 -125,123 -265,272 -311,330 -109,138 -105,103 15,-126 152,-288 339,-472 623,-615 154,-77 248,-111 265,-94 48,47 -3,99 -184,189 z M 4784,13961 c 16,-40 35,-19 98,112 83,173 95,180 253,132 125,-37 146,-21 103,82 -29,70 -47,80 -182,94 -82,9 -174,22 -205,28 -31,6 -63,4 -73,-6 -23,-23 -18,-379 6,-442 z m 14699,-2795 c -262,-59 -524,-119 -582,-133 -199,-46 -668,-104 -839,-104 -137,0 -203,-16 -330,-80 -87,-43 -181,-103 -208,-133 -48,-53 -47,-56 62,-162 61,-59 111,-115 111,-124 0,-9 -24,-56 -53,-104 -39,-64 -44,-89 -20,-98 86,-28 249,-66 285,-66 23,0 177,85 344,189 378,235 746,420 1251,629 525,219 770,350 639,343 -28,-2 -81,-13 -118,-26 -36,-12 -280,-71 -542,-131 z m -2176,-707 c 51,-109 51,-117 7,-233 -25,-66 -40,-125 -34,-131 7,-7 75,54 151,135 160,169 164,154 -88,364 -116,98 -127,102 -109,44 11,-36 44,-116 73,-179 z m -588,-3541 c 0,-148 -14,-214 -67,-312 -36,-69 -66,-130 -66,-135 0,-18 262,150 293,188 37,44 -33,295 -107,384 l -52,63 z m 441,7 c -121,-38 -150,-78 -150,-206 0,-76 -19,-112 -84,-167 l -84,-71 124,-124 123,-123 404,-4 c 538,-6 871,-44 1495,-170 597,-121 801,-156 931,-156 l 92,-1 -93,64 c -135,91 -244,132 -668,253 -774,220 -856,244 -1050,311 -266,92 -550,223 -728,337 -159,102 -164,102 -312,57 z"
     id="path1173"
     style="display:inline" /><path
     fill="#ff0000"
     stroke="none"
     d="m 8689,18826 c -15,-5 -170,-22 -346,-38 -486,-42 -1289,-202 -1757,-350 -1063,-335 -1981,-794 -2811,-1403 l -179,-131 107,-150 c 242,-343 861,-1088 904,-1088 25,-1 106,23 180,52 73,29 138,53 143,53 5,0 17,-114 28,-252 10,-138 28,-251 38,-251 11,0 55,91 97,203 95,251 118,182 49,-147 -44,-212 -44,-227 1,-357 26,-75 57,-146 69,-159 27,-31 319,247 463,440 62,85 138,231 170,331 146,450 162,483 253,521 48,20 191,62 320,93 128,32 255,63 280,71 39,11 46,-6 46,-108 0,-175 -116,-637 -207,-822 -43,-87 -73,-163 -68,-169 13,-14 164,103 272,212 86,86 298,491 335,640 24,93 65,118 65,39 0,-89 -99,-433 -157,-546 -125,-242 -406,-448 -783,-574 -387,-129 -20,-118 464,14 187,51 518,223 710,370 279,212 459,464 665,933 l 55,126 h 443 442 l 61,205 c 57,191 125,463 188,748 14,65 44,238 66,383 42,283 45,304 103,648 21,124 47,282 58,351 l 19,126 -380,-3 c -209,-1 -392,-6 -406,-11 z m 1270,-562 c 23,-721 50,-1060 116,-1462 73,-441 70,-531 -26,-809 -86,-248 -87,-283 -9,-664 12,-61 -4,-139 -55,-273 -39,-103 -66,-193 -60,-200 38,-38 613,260 952,493 104,72 211,131 237,131 68,0 370,-118 586,-228 211,-107 547,-324 547,-352 0,-56 -458,-409 -725,-559 -87,-48 -293,-150 -459,-227 -167,-76 -310,-147 -320,-158 -24,-26 528,9 678,44 227,53 517,163 943,360 231,107 426,189 432,183 24,-24 -308,-260 -522,-371 -124,-64 -350,-156 -503,-205 l -278,-88 -713,2 -712,2 115,-49 c 440,-187 1323,-333 1839,-305 411,23 648,65 803,144 250,126 491,447 543,723 12,64 72,148 200,282 156,163 196,225 278,436 53,136 111,265 129,288 17,23 151,147 296,275 146,129 354,312 463,408 108,96 287,262 396,367 l 199,193 -119,108 c -640,585 -1846,1257 -2858,1593 -631,210 -1460,389 -2036,440 -167,15 -320,27 -339,27 -28,0 -32,-104 -18,-549 z M 2851,16270 c -295,-291 -400,-417 -593,-710 -244,-372 -575,-990 -674,-1260 -219,-598 -303,-954 -474,-2009 C 1076,12077 960,11216 922,10889 843,10213 724,9770 484,9263 339,8958 135,8589 46,8471 c -81,-107 -54,-116 76,-24 172,122 750,697 851,846 304,451 557,1166 706,1993 136,760 348,1457 617,2032 118,253 446,788 505,824 20,13 61,-77 149,-327 29,-84 67,34 131,408 17,101 19,103 44,39 16,-43 15,-132 -3,-256 -28,-191 -52,-273 -157,-531 -31,-76 -51,-139 -46,-139 24,0 295,388 403,576 153,269 274,646 274,855 0,156 4,164 132,300 73,77 133,151 133,165 0,57 -530,1209 -615,1338 -34,52 -54,36 -395,-300 z m 12802,11 c -114,-129 -420,-696 -668,-1235 -104,-227 -148,-288 -327,-462 -153,-149 -232,-253 -305,-399 -67,-135 -160,-262 -292,-397 -197,-203 -439,-545 -439,-621 0,-23 36,-172 80,-331 144,-519 187,-850 203,-1568 l 15,-654 135,-44 c 75,-24 148,-53 162,-64 43,-33 466,-156 600,-174 92,-13 144,-5 211,31 66,36 153,49 343,51 214,3 266,13 334,61 73,52 95,55 221,31 302,-57 1173,132 1478,321 231,143 280,165 464,200 102,19 281,35 397,36 322,0 336,7 316,155 -30,217 -174,774 -294,1139 -463,1404 -1220,2633 -2294,3725 -132,135 -253,245 -270,245 -16,0 -48,-21 -70,-46 z m -6243,-801 c -44,-1 -285,-166 -285,-195 0,-18 30,-121 65,-230 l 65,-197 -51,-291 c -28,-160 -68,-357 -89,-437 -38,-144 -38,-146 30,-217 l 68,-72 -123,-113 -122,-114 39,-238 c 102,-626 3,-1057 -375,-1629 -63,-96 -115,-191 -115,-212 0,-22 25,-110 56,-197 46,-131 53,-196 41,-383 -8,-123 -28,-263 -45,-310 -20,-57 -27,-268 -21,-641 5,-305 0,-556 -10,-556 -11,0 -31,51 -47,113 -15,62 -39,149 -53,193 -34,103 -35,806 -2,934 13,52 38,181 55,286 l 30,190 -93,167 -94,168 132,211 c 237,380 387,718 421,952 17,116 27,271 22,344 l -8,132 -187,-251 c -292,-394 -300,-407 -375,-645 -52,-166 -79,-219 -102,-200 -22,18 -66,-3 -145,-69 -220,-184 -308,-200 -686,-123 -290,60 -353,66 -334,36 11,-17 155,-139 321,-272 166,-133 325,-280 352,-326 58,-98 148,-357 130,-374 -6,-7 -65,74 -130,180 -96,156 -152,215 -302,314 -307,204 -551,503 -789,968 -122,239 -126,244 -235,260 l -111,17 9,115 c 9,111 1,125 -186,335 -277,312 -427,546 -561,877 -31,76 -53,98 -88,87 -26,-7 -132,-21 -236,-31 l -189,-18 -82,-159 c -46,-88 -83,-175 -83,-193 0,-19 58,-76 128,-128 251,-184 504,-506 682,-870 63,-129 91,-158 189,-195 89,-34 111,-54 100,-93 -8,-27 -21,-73 -29,-103 -11,-39 20,-92 120,-202 173,-189 265,-374 358,-723 40,-153 90,-339 111,-414 20,-75 73,-186 116,-246 127,-175 272,-421 464,-786 99,-186 246,-423 328,-526 81,-102 161,-222 178,-264 16,-43 41,-222 55,-398 27,-344 36,-370 263,-721 86,-131 89,-144 48,-185 -35,-35 -83,-42 -248,-33 -375,19 -465,12 -589,-44 -347,-160 -883,-323 -1334,-406 -267,-49 -427,-59 -1006,-64 -378,-3 -622,-1 -542,4 80,6 372,28 649,50 277,21 518,39 536,39 19,0 32,40 32,102 0,55 8,109 18,119 9,9 93,-25 185,-75 92,-51 167,-84 167,-75 0,9 -34,72 -77,139 -79,125 -179,333 -249,518 -21,58 -54,144 -71,192 -18,47 -43,86 -57,86 -13,0 -171,-142 -349,-316 -315,-306 -331,-317 -521,-372 -306,-89 -333,-103 -461,-240 -131,-140 -143,-174 -73,-192 25,-7 -28,-13 -119,-15 -91,-2 -166,-13 -166,-26 0,-32 297,-153 599,-244 654,-197 1405,-287 2471,-295 904,-6 1121,38 1396,284 158,141 218,172 331,172 140,0 210,-90 847,-1078 68,-106 180,-279 248,-384 68,-106 286,-359 485,-564 384,-395 499,-563 612,-892 53,-154 85,-200 223,-322 136,-120 168,-166 208,-296 96,-319 152,-443 266,-591 179,-233 348,-359 653,-487 357,-150 471,-207 471,-231 0,-39 -728,186 -968,299 -227,106 -451,448 -523,795 -42,206 -74,261 -279,481 -87,94 -208,272 -290,425 -175,327 -264,459 -447,662 -178,197 -357,436 -615,817 -198,294 -198,295 -304,293 -264,-5 -854,-254 -1470,-620 l -262,-155 -510,245 c -280,135 -628,296 -774,357 -367,155 -411,199 -544,545 l -71,185 -287,58 c -415,84 -833,188 -1119,277 -136,42 -253,71 -260,64 -18,-17 42,-447 90,-637 51,-204 204,-613 311,-833 334,-683 712,-1194 1416,-1913 623,-638 1083,-953 1747,-1196 365,-134 1127,-304 1601,-358 145,-16 348,-44 450,-61 177,-29 159,-31 -392,-44 l -576,-13 159,-172 c 170,-185 186,-212 114,-198 -219,44 -354,81 -447,120 -99,43 -114,62 -165,216 -54,161 -62,170 -169,200 -226,65 -661,166 -671,156 -18,-17 67,-199 166,-353 l 95,-149 -73,19 c -189,47 -458,181 -475,236 -9,31 -39,145 -66,252 -28,107 -54,198 -58,202 -33,29 -558,278 -587,278 -30,0 -31,-32 -2,-205 19,-113 47,-246 62,-296 16,-50 23,-97 16,-103 -37,-37 -363,240 -437,372 -54,96 -59,130 -45,354 l 14,247 -246,212 c -136,117 -258,212 -273,212 -14,0 -38,-50 -54,-112 -54,-220 -64,-387 -31,-562 18,-96 27,-181 20,-188 -26,-25 -313,295 -370,412 -74,152 -78,481 -11,774 l 47,205 -179,225 c -98,124 -192,225 -209,225 -40,0 -187,-208 -254,-359 -30,-67 -62,-202 -72,-298 l -19,-176 -56,108 c -104,196 -167,426 -167,605 0,156 13,198 134,429 l 133,257 -123,240 c -68,131 -134,251 -147,264 -63,68 -314,-290 -396,-564 l -34,-115 -37,102 c -21,56 -44,205 -51,329 -16,254 16,359 191,623 107,161 112,184 83,390 l -22,155 -72,-69 c -40,-38 -131,-171 -203,-295 l -130,-227 -9,233 c -4,129 5,279 22,334 16,55 106,201 200,324 l 170,223 -165,120 -165,120 194,-18 193,-18 124,141 c 334,381 420,568 393,858 -31,337 -86,426 -418,679 -114,86 -220,180 -234,208 -27,49 -22,73 122,556 47,160 80,553 39,462 -14,-29 -86,-237 -160,-462 -221,-666 -208,-607 -146,-657 174,-141 284,-243 273,-255 -21,-20 -507,181 -572,237 -4,3 76,179 178,391 181,378 187,396 263,844 146,866 158,1923 26,2276 -91,244 -114,170 -134,-437 -17,-539 -45,-733 -160,-1116 -65,-218 -74,-502 -23,-761 l 34,-179 -110,-184 c -235,-396 -507,-1011 -466,-1053 8,-7 73,-34 145,-60 72,-25 283,-131 470,-234 186,-104 384,-196 438,-204 55,-9 99,-26 99,-38 0,-12 -74,-38 -165,-58 l -165,-36 -14,-178 c -7,-97 -25,-177 -39,-178 -45,-2 -207,30 -298,58 l -86,27 v 285 c 0,248 -6,291 -51,332 -28,25 -62,39 -76,31 -13,-9 -57,-139 -97,-291 -97,-364 -101,-369 -200,-255 -44,51 -103,135 -131,188 -50,94 -50,97 11,363 l 60,269 h -55 c -31,0 -112,-17 -181,-38 -69,-21 -131,-29 -138,-18 -13,22 73,318 118,401 15,29 112,95 215,147 189,95 314,201 314,266 0,27 -52,36 -212,36 -128,0 -212,11 -212,27 0,51 126,276 182,327 40,35 116,55 268,68 117,11 220,26 228,35 9,8 -10,124 -40,258 l -56,242 79,273 c 132,457 216,906 231,1233 17,349 -11,509 -129,745 -68,135 -84,152 -136,135 -32,-10 -95,-27 -140,-37 -44,-10 -103,-31 -131,-46 -43,-25 -34,-32 69,-60 227,-60 290,-168 290,-500 0,-456 -171,-1071 -382,-1375 -46,-67 -68,-134 -68,-208 0,-150 -33,-225 -163,-365 -97,-106 -114,-143 -132,-285 -11,-90 -62,-276 -114,-414 -137,-366 -210,-730 -212,-1049 l -1,-268 141,-149 c 82,-87 173,-221 220,-324 44,-96 122,-215 174,-264 107,-101 104,-131 -9,-87 -218,86 -219,86 -307,-56 -45,-72 -91,-131 -103,-131 -44,0 -182,279 -182,368 0,52 34,151 81,234 64,113 74,151 49,180 -52,64 -114,43 -236,-81 -64,-66 -124,-119 -133,-119 -19,0 -79,242 -79,318 0,27 68,199 149,383 82,183 141,341 133,349 -9,8 -76,-11 -150,-43 -75,-32 -145,-54 -157,-50 -12,5 5,89 37,187 49,152 88,209 256,383 230,238 298,342 343,517 35,143 2,319 -67,345 -66,25 -506,-573 -585,-797 -27,-77 -136,-254 -242,-395 -106,-140 -193,-265 -193,-276 0,-12 60,3 132,31 l 133,52 v -145 c 0,-139 -6,-152 -144,-301 -101,-111 -157,-199 -190,-304 -25,-81 -38,-156 -28,-166 10,-9 76,32 148,93 72,60 143,110 159,110 17,0 28,-62 28,-152 0,-126 -15,-178 -88,-298 -113,-189 -150,-297 -150,-447 v -122 l 143,159 c 78,87 152,149 165,137 40,-39 23,-215 -32,-322 -29,-58 -97,-185 -151,-281 -53,-96 -115,-251 -137,-344 -90,-380 -20,-1018 166,-1531 8,-22 24,91 35,251 29,418 73,665 150,846 120,279 203,371 128,143 -61,-185 -123,-412 -123,-450 0,-19 20,-6 44,30 24,36 117,143 208,238 91,94 184,207 207,251 23,44 42,62 43,40 2,-65 -53,-439 -119,-807 -106,-590 -132,-988 -86,-1299 34,-230 61,-309 190,-566 255,-507 491,-844 861,-1227 205,-214 601,-550 769,-655 36,-23 102,-64 145,-91 l 80,-51 -67,83 c -36,46 -142,177 -235,291 -253,311 -493,691 -717,1134 -208,412 -218,435 -350,807 -117,331 -110,449 54,979 74,240 153,508 175,595 86,339 174,758 174,826 0,54 7,63 31,40 54,-54 -21,-509 -151,-920 -192,-607 -191,-584 -25,-897 154,-290 169,-352 239,-967 64,-559 163,-789 577,-1341 169,-225 361,-440 361,-404 0,7 -53,146 -117,310 -64,164 -132,358 -151,430 -30,117 -28,138 10,176 40,40 44,33 61,-93 10,-75 27,-137 38,-137 11,0 28,81 38,179 17,176 69,488 83,505 4,5 181,-167 393,-382 326,-331 386,-404 386,-472 1,-275 145,-914 254,-1131 54,-106 256,-296 456,-429 157,-105 579,-321 786,-404 43,-17 124,-50 180,-73 248,-100 234,-19 -16,99 -511,241 -836,653 -919,1161 -34,211 -34,286 -1,286 15,0 27,-16 27,-36 0,-71 136,-456 217,-612 45,-87 126,-218 181,-291 114,-152 263,-316 263,-290 0,10 -56,133 -126,273 l -125,255 v 295 c 0,163 7,303 16,312 8,8 98,-22 198,-68 100,-45 260,-117 355,-159 285,-127 298,-139 445,-397 C 7553,277 7657,193 8442,57 8638,23 9026,1 9293,0 h 30 c 148,0 252,8 252,25 0,11 -62,36 -139,55 -364,88 -392,103 -648,355 -144,143 -267,291 -301,361 -59,127 -128,336 -129,391 0,38 495,45 802,10 l 179,-20 310,-309 c 334,-334 491,-458 687,-542 166,-71 596,-118 893,-96 216,15 661,95 690,124 7,6 -134,21 -313,31 -178,11 -414,35 -523,53 l -198,32 99,43 c 55,24 99,47 99,52 0,5 -68,80 -152,167 -131,137 -346,475 -319,502 18,18 458,66 605,66 118,0 159,-12 199,-57 90,-99 368,-283 582,-386 196,-93 228,-100 503,-109 335,-11 642,50 924,183 l 158,75 -172,-18 c -94,-10 -350,-18 -568,-18 -335,0 -412,7 -490,48 -96,51 -317,251 -317,286 0,11 56,-12 125,-53 172,-100 389,-184 559,-216 254,-47 256,-32 13,128 -129,84 -250,173 -269,196 -30,36 -20,44 80,59 541,86 1066,225 1175,310 41,31 463,166 653,208 l 153,34 124,-119 c 377,-359 765,-647 1024,-761 120,-52 543,-111 543,-76 0,8 -94,75 -208,149 -308,200 -660,599 -967,1095 -202,326 -236,441 -216,715 19,258 11,282 -146,471 -55,67 -130,198 -165,291 -36,94 -115,278 -177,409 -247,527 -247,527 -258,1286 -10,675 -10,678 60,886 39,115 122,309 186,432 64,123 110,231 102,239 -22,21 -663,17 -1039,-7 l -327,-21 -136,140 c -75,77 -178,192 -229,255 l -92,116 -264,-41 c -266,-41 -636,-58 -979,-47 -250,8 -166,37 278,94 196,25 517,79 714,120 196,41 361,66 365,57 5,-9 77,-130 161,-268 l 153,-252 686,-3 c 883,-4 1127,-49 1348,-249 l 108,-97 183,24 c 338,43 648,-31 844,-201 l 105,-91 153,121 c 85,66 154,129 154,138 0,35 -88,279 -110,309 -13,16 -110,35 -216,42 -238,15 -422,96 -634,278 -131,113 -185,139 -382,189 -230,58 -434,158 -569,279 -92,83 -232,302 -232,364 0,40 -24,49 -139,51 -77,1 -169,11 -205,21 l -66,19 79,20 c 147,36 463,161 463,182 0,12 -30,33 -66,47 -37,14 -99,38 -138,53 l -71,28 138,79 c 75,43 223,159 328,257 258,240 364,346 364,359 0,26 -434,-108 -709,-218 -198,-80 -650,-308 -767,-387 -120,-82 -180,-82 -429,-3 -330,105 -369,105 -820,-8 -450,-112 -700,-155 -634,-109 87,62 944,319 1061,319 67,0 240,-30 386,-67 l 264,-67 381,196 c 348,178 693,319 1043,423 100,30 554,97 659,97 7,0 20,44 29,99 29,174 27,172 166,102 l 128,-65 130,82 c 273,169 510,258 779,290 l 257,30 74,141 c 40,78 69,146 63,151 -6,5 -60,51 -122,102 l -111,93 -153,-62 c -310,-125 -800,-184 -974,-117 -61,23 -83,16 -159,-50 -82,-73 -97,-76 -261,-63 -141,11 -198,3 -310,-45 -179,-77 -679,-100 -1220,-57 -275,22 -405,24 -442,4 -28,-16 -147,-100 -263,-187 -226,-169 -399,-228 -580,-194 -115,22 -72,52 133,92 122,24 201,66 397,211 135,100 281,188 325,197 45,9 276,4 516,-11 239,-15 437,-23 442,-19 4,6 -137,60 -316,123 -369,130 -741,309 -846,407 -147,138 -246,314 -444,789 -47,112 -94,199 -106,192 -28,-18 -56,-163 -136,-702 -45,-304 -82,-370 -339,-606 -128,-117 -251,-251 -273,-299 -92,-198 -152,-335 -152,-350 0,-8 -48,-117 -106,-242 -82,-176 -147,-269 -288,-410 -101,-101 -196,-182 -212,-182 -17,0 37,98 120,218 126,184 354,615 354,670 0,21 64,167 165,375 69,141 113,189 286,317 113,83 223,180 244,217 38,68 83,274 113,517 27,226 92,412 254,732 120,236 193,345 314,464 l 157,155 -38,124 c -41,138 -41,140 99,166 78,15 103,33 116,88 35,145 169,454 256,590 99,156 296,350 404,399 66,30 69,38 52,186 -10,86 -24,172 -32,193 -19,50 62,49 149,-1 37,-21 77,-39 90,-39 25,-1 4,444 -22,469 -18,18 -315,-40 -478,-93 l -132,-44 106,-19 c 58,-11 156,-21 217,-22 123,-1 162,-36 111,-97 -28,-34 -83,-40 -286,-32 l -252,9 -23,-80 c -12,-43 -71,-177 -129,-297 -102,-212 -332,-482 -595,-701 -77,-64 -82,-76 -60,-170 34,-145 31,-168 -21,-168 -26,0 -91,-12 -146,-27 -94,-26 -99,-34 -99,-134 0,-87 -22,-133 -113,-244 -61,-75 -119,-143 -126,-150 -8,-7 -138,-166 -289,-353 -151,-187 -392,-455 -536,-595 -217,-213 -267,-278 -300,-386 -21,-72 -38,-163 -38,-202 0,-40 -19,-118 -43,-174 -44,-107 -372,-610 -415,-636 -53,-33 34,189 199,509 90,174 135,302 162,457 l 37,214 382,378 c 325,322 555,584 642,731 12,20 -45,-6 -126,-58 -206,-132 -786,-423 -805,-404 -8,9 -2,46 15,83 17,37 31,73 31,80 0,6 -62,12 -138,12 -133,0 -145,-6 -294,-152 l -157,-152 18,92 c 9,51 24,135 32,187 l 15,93 -283,142 c -325,163 -363,207 -480,553 -68,198 -77,213 -93,145 -73,-305 -60,-982 29,-1459 17,-93 24,-206 14,-252 -23,-116 -200,-494 -231,-494 -14,0 -17,21 -7,47 56,147 97,487 82,694 -8,124 -22,447 -31,718 -17,520 0,673 95,882 28,62 66,167 84,233 29,110 26,127 -38,236 -47,80 -61,129 -44,155 33,52 31,370 -4,581 -30,186 -11,331 88,669 l 53,181 -63,68 c -108,119 -220,218 -248,218 -14,0 -56,-23 -92,-52 -37,-28 -75,-52 -86,-52 z m -1607,-807 c -288,-52 -226,-88 214,-123 408,-31 836,-15 989,39 95,33 107,47 114,135 10,112 -114,466 -162,465 -17,0 -106,-48 -199,-106 -306,-195 -698,-362 -956,-410 z M 3371,13282 c -287,-96 -333,-121 -483,-257 -91,-83 -165,-161 -165,-172 0,-11 107,34 238,100 130,65 254,119 275,119 47,0 196,-230 231,-356 14,-51 36,-94 49,-94 13,0 36,69 53,152 44,231 84,379 136,503 34,80 38,112 16,112 -18,0 -175,-48 -350,-107 z m 426,-757 c 67,-306 69,-328 54,-1027 -8,-393 -28,-825 -45,-959 -35,-275 -25,-338 47,-299 26,14 83,33 127,43 l 79,17 -86,72 c -90,75 -102,128 -69,325 16,98 18,100 139,101 l 122,1 -113,99 c -106,93 -112,106 -112,243 1,198 20,223 147,188 56,-16 106,-23 112,-17 6,6 -45,82 -113,169 -111,141 -122,169 -106,246 36,168 59,188 188,174 139,-16 129,7 -69,141 l -133,91 v 188 189 l 161,-65 c 88,-35 173,-60 189,-55 15,5 -50,86 -147,179 -162,157 -276,343 -242,397 16,26 236,-32 397,-104 234,-106 271,-97 167,41 -159,212 -470,460 -576,460 -26,0 -72,-58 -115,-146 -90,-184 -91,-292 -3,-692 z m 884,297 c 0,-10 37,-49 83,-88 100,-85 155,-207 155,-348 v -105 l -191,-8 -190,-8 127,-143 c 122,-137 127,-149 111,-262 -9,-65 -16,-135 -16,-154 0,-26 -40,-36 -144,-36 h -145 l 65,-139 c 45,-96 65,-186 65,-291 v -152 h -164 -164 l 114,-117 c 109,-111 113,-121 95,-231 -26,-158 -50,-195 -151,-235 -48,-19 -90,-37 -94,-40 -4,-2 23,-69 59,-147 90,-194 87,-264 -14,-322 -60,-34 -77,-59 -65,-96 9,-28 26,-138 39,-245 37,-321 66,-366 378,-581 84,-58 153,-116 153,-130 0,-13 -93,-78 -205,-143 -113,-66 -223,-130 -245,-143 -35,-21 -34,-39 7,-153 53,-150 61,-480 16,-661 -17,-65 -24,-125 -16,-132 7,-8 91,23 187,68 131,63 219,132 366,290 169,182 532,504 568,504 7,0 121,-89 254,-198 133,-109 246,-193 252,-187 6,6 -38,95 -99,198 -215,369 -397,903 -438,1285 l -19,172 89,1 c 139,0 170,36 64,75 -169,61 -332,167 -405,262 -72,94 -72,98 -70,507 3,483 55,885 189,1449 l 95,402 -72,95 c -113,147 -183,180 -415,193 -115,7 -209,4 -209,-6 z m 13471,-2680 -166,-116 -284,-7 c -208,-6 -351,-27 -535,-78 -138,-39 -294,-70 -346,-70 -145,0 -413,-98 -631,-230 -113,-68 -248,-127 -317,-138 -67,-11 -169,-49 -227,-86 -58,-36 -201,-112 -317,-170 -287,-141 -542,-389 -609,-593 -54,-162 -60,-396 -14,-516 78,-204 308,-341 661,-393 132,-19 243,-40 247,-46 137,-194 232,-296 306,-331 50,-24 229,-65 398,-91 169,-25 360,-70 426,-98 197,-86 386,-120 546,-100 142,18 152,15 325,-100 218,-145 366,-222 553,-286 159,-55 177,-51 197,35 7,33 50,185 94,338 44,153 105,421 137,595 32,175 61,324 66,332 5,8 30,252 54,543 55,652 30,1918 -38,1916 -9,0 -93,-44 -188,-97 -95,-54 -247,-149 -338,-213 z M 14554,6837 c -272,-386 -379,-1021 -298,-1781 48,-451 88,-576 347,-1092 281,-559 332,-702 352,-989 16,-244 56,-422 109,-495 35,-47 52,-36 296,171 767,653 1334,1269 1945,2114 406,561 839,1309 788,1360 -35,36 -560,23 -845,-21 l -249,-38 -144,129 c -143,126 -289,184 -469,184 -112,0 -272,81 -342,173 -58,76 -89,91 -219,107 -86,11 -272,5 -425,-12 l -272,-32 -117,102 c -64,57 -166,118 -226,136 -61,18 -126,39 -144,46 -19,7 -58,-21 -87,-62 z"
     id="path1166"
     style="display:inline" /></g></svg>
